<?xml version="1.0" standalone="no"?>
<!DOCTYPE svg PUBLIC "-//W3C//DTD SVG 20010904//EN"
 "http://www.w3.org/TR/2001/REC-SVG-20010904/DTD/svg10.dtd">
<svg version="1.0" xmlns="http://www.w3.org/2000/svg"
 width="2550.000000pt" height="642.000000pt" viewBox="0 0 2550.000000 642.000000"
 preserveAspectRatio="xMidYMid meet">
<metadata>
Created by potrace 1.16, written by Peter Selinger 2001-2019
</metadata>
<g transform="translate(0.000000,642.000000) scale(0.100000,-0.100000)"
fill="#000000" stroke="none">
<path d="M12405 5914 c-169 -42 -305 -180 -632 -644 -198 -281 -307 -467 -503
-865 -188 -383 -517 -1115 -688 -1533 -14 -35 -35 -68 -46 -74 -12 -6 -58 -44
-104 -85 -289 -257 -554 -383 -801 -383 -187 0 -312 50 -431 170 -110 111
-138 173 -195 438 -25 117 -55 238 -66 268 -38 102 -129 190 -234 225 -29 10
-95 14 -235 13 -183 0 -201 -2 -285 -28 -283 -85 -512 -282 -683 -586 -17 -30
-57 -82 -89 -115 -38 -39 -75 -92 -106 -153 -84 -161 -327 -516 -492 -717
-119 -144 -188 -212 -293 -285 -248 -174 -448 -238 -563 -180 -137 70 -214
244 -214 485 0 154 20 258 97 495 91 280 170 460 267 610 155 239 164 257 158
301 -11 83 -61 119 -165 119 -50 0 -76 -8 -168 -51 -186 -87 -513 -224 -654
-274 -148 -52 -270 -109 -317 -149 -28 -23 -103 -137 -103 -155 0 -10 -120
-113 -205 -176 -233 -173 -441 -255 -644 -255 -187 0 -312 50 -431 170 -110
111 -138 173 -195 438 -25 117 -55 238 -66 268 -38 102 -129 190 -234 225 -29
10 -95 14 -235 13 -183 0 -201 -2 -285 -28 -198 -60 -370 -173 -501 -329 -184
-218 -278 -414 -306 -630 -10 -83 -10 -106 5 -172 33 -154 149 -305 284 -372
68 -34 82 -37 181 -41 222 -9 401 68 590 252 116 113 168 181 246 326 38 69
69 126 70 128 2 1 27 -40 57 -90 65 -112 213 -267 304 -320 159 -92 308 -128
530 -128 173 0 249 16 447 96 186 74 278 129 460 272 128 100 193 170 209 223
10 33 24 47 90 89 110 71 443 199 464 179 7 -8 -35 -138 -86 -262 -148 -361
-207 -711 -168 -994 15 -112 39 -172 114 -283 110 -166 247 -267 398 -293 120
-20 369 26 524 98 118 55 328 218 499 389 139 140 161 167 293 366 79 118 147
219 151 223 4 5 24 -16 44 -46 53 -79 136 -153 213 -189 58 -28 80 -32 172
-36 221 -9 401 68 589 252 116 113 168 181 246 326 38 69 69 126 70 128 2 1
27 -40 57 -90 65 -112 213 -267 304 -320 159 -92 308 -128 530 -128 130 0 162
3 242 25 171 47 390 144 512 228 l44 30 -6 -34 c-16 -89 -30 -313 -30 -494 -1
-196 24 -452 55 -570 35 -134 126 -201 217 -161 87 40 86 38 131 285 29 158
51 251 76 314 141 367 273 586 386 647 54 28 88 22 129 -21 44 -47 137 -210
180 -315 120 -297 279 -478 483 -553 65 -24 84 -26 221 -26 124 0 165 4 233
23 157 42 287 115 417 234 136 124 373 531 459 788 43 128 69 236 61 259 -3
12 9 25 48 47 97 58 405 169 422 153 7 -8 -35 -138 -86 -262 -148 -361 -207
-711 -168 -994 15 -112 39 -172 114 -283 110 -166 247 -267 398 -293 120 -20
369 26 524 98 118 55 328 218 499 389 140 141 161 166 303 379 l153 229 39
-59 c54 -83 137 -159 216 -195 58 -28 80 -32 172 -36 221 -9 401 68 589 252
116 113 168 181 246 326 38 69 69 126 70 128 2 1 27 -40 57 -90 65 -112 213
-267 304 -320 159 -92 308 -128 530 -128 173 0 249 16 447 96 169 68 255 117
439 253 16 11 22 11 36 0 32 -27 153 -169 153 -180 0 -7 -33 -41 -72 -78 -398
-362 -603 -639 -670 -902 -29 -119 -23 -273 15 -346 35 -67 108 -139 186 -183
34 -19 68 -39 74 -45 7 -5 47 -9 89 -9 61 1 75 -1 71 -12 -7 -18 1 -18 45 5
20 10 84 30 142 44 126 30 255 76 318 113 78 46 222 183 269 257 25 38 62 110
83 160 48 117 111 317 99 317 -15 0 -10 50 5 56 16 6 19 -7 -80 318 l-67 219
23 19 c66 53 293 161 473 224 96 33 370 114 388 114 4 0 5 -30 2 -67 -15 -191
114 -411 294 -500 68 -34 82 -37 181 -41 222 -9 401 68 590 252 116 113 168
181 246 326 38 69 69 126 70 128 2 1 27 -40 57 -90 65 -112 213 -267 304 -320
159 -92 308 -128 530 -128 130 0 162 3 242 25 171 47 387 143 513 228 86 58
258 197 300 243 96 104 95 202 -3 263 -30 18 -40 19 -93 11 -32 -6 -62 -10
-66 -10 -4 0 -49 -37 -100 -82 -301 -265 -557 -388 -807 -388 -187 0 -312 50
-431 170 -110 111 -138 173 -195 438 -25 117 -55 238 -66 268 -38 102 -129
190 -234 225 -29 10 -95 14 -235 13 -183 0 -201 -2 -285 -28 -260 -78 -462
-240 -633 -506 -30 -47 -58 -89 -62 -93 -4 -4 -83 -25 -176 -47 -277 -63 -403
-104 -716 -235 l-299 -124 -46 20 c-25 11 -48 18 -50 15 -6 -6 -113 120 -113
133 0 5 28 51 63 103 83 125 130 215 169 329 28 84 32 106 32 204 0 90 -4 120
-23 167 -48 123 -173 217 -337 254 -161 35 -288 -1 -404 -118 -100 -100 -180
-294 -180 -438 0 -95 58 -235 156 -378 l43 -62 -72 -54 c-236 -174 -442 -256
-646 -256 -187 0 -312 50 -431 170 -110 111 -138 173 -195 438 -25 117 -55
238 -66 268 -38 102 -129 190 -234 225 -29 10 -95 14 -235 13 -183 0 -201 -2
-285 -28 -266 -80 -484 -258 -646 -527 -30 -50 -86 -122 -125 -162 -51 -52
-83 -97 -118 -165 -82 -160 -325 -515 -491 -717 -119 -144 -188 -212 -293
-285 -248 -174 -448 -238 -563 -180 -137 70 -214 244 -214 485 0 154 20 258
97 495 91 280 170 460 267 610 155 239 164 257 158 301 -11 83 -61 119 -165
119 -50 0 -76 -8 -168 -51 -186 -87 -513 -224 -654 -274 -148 -52 -270 -109
-317 -149 -34 -29 -103 -139 -103 -164 0 -9 11 -35 24 -56 24 -40 24 -40 6
-90 -10 -28 -30 -89 -44 -136 -35 -111 -140 -320 -224 -445 -103 -152 -262
-281 -411 -332 -76 -26 -194 -30 -254 -9 -114 41 -215 184 -336 473 -90 215
-206 364 -329 425 -62 31 -74 33 -162 32 -107 0 -162 -18 -259 -82 -105 -69
-193 -167 -249 -277 -54 -104 -131 -230 -136 -224 -7 7 25 253 44 347 10 52
29 113 42 138 42 80 147 220 437 581 422 527 624 802 770 1048 307 515 543
1013 627 1321 22 81 27 121 28 221 1 141 -8 162 -85 200 -44 22 -136 36 -174
27z m-95 -481 c-148 -450 -472 -1055 -817 -1527 -54 -73 -140 -194 -191 -267
-51 -74 -102 -145 -113 -159 l-20 -25 7 25 c12 45 180 431 283 652 55 119 101
222 101 228 0 18 68 147 142 269 196 319 619 924 635 907 3 -3 -9 -49 -27
-103z m6623 -2105 c21 -6 53 -25 69 -42 29 -29 30 -33 24 -90 -3 -33 -21 -94
-40 -138 -42 -97 -127 -239 -141 -235 -18 5 -93 125 -114 182 -31 82 -27 137
13 221 52 108 93 131 189 102z m-15923 -204 c0 -109 -130 -406 -272 -622 -215
-326 -467 -440 -616 -278 -52 57 -67 103 -66 206 1 105 18 151 116 310 96 154
227 287 345 348 121 63 202 81 361 81 l132 1 0 -46z m5620 0 c0 -109 -130
-406 -272 -622 -215 -326 -467 -440 -616 -278 -52 57 -67 103 -66 206 1 105
18 151 116 310 96 154 227 287 345 348 121 63 202 81 361 81 l132 1 0 -46z
m8240 0 c0 -109 -130 -406 -272 -622 -215 -326 -467 -440 -616 -278 -52 57
-67 103 -66 206 1 105 18 151 116 310 96 154 227 287 345 348 121 63 202 81
361 81 l132 1 0 -46z m4740 0 c0 -109 -130 -406 -272 -622 -215 -326 -467
-440 -616 -278 -52 57 -67 103 -66 206 1 105 18 151 116 310 96 154 227 287
345 348 121 63 202 81 361 81 l132 1 0 -46z m-2414 -1222 c38 -55 69 -204 68
-322 -1 -125 -19 -206 -71 -309 -33 -65 -51 -86 -136 -157 -102 -86 -214 -151
-306 -178 -63 -18 -153 -21 -183 -5 -66 36 -63 224 6 374 53 112 280 394 405
503 76 66 172 133 185 129 6 -2 21 -18 32 -35z"/>
</g>
</svg>
